<svg xmlns="http://www.w3.org/2000/svg" width="1648" height="614" fill="none"  xmlns:v="https://vecta.io/nano"><circle cx="1109" cy="190" r="11" fill="#ffe066"/><g fill="#3278e4"><rect opacity=".15" x="1515" width="153" height="124" rx="16" transform="rotate(30 1515 0)" fill-opacity=".3"/><rect opacity=".15" x="64.891" y="244" width="145.664" height="128.824" rx="16" transform="rotate(30 64.891 244)" fill-opacity=".3"/></g><path d="M1499.97 36.477a5.48 5.48 0 1 1-10.97 0 5.48 5.48 0 1 1 10.97 0z" stroke="#38d9a9" stroke-width="2"/><path fill-rule="evenodd" d="M549 66a3 3 0 1 0 0-6 3 3 0 1 0 0 6zm0 19a3 3 0 1 0 0-6 3 3 0 1 0 0 6zm3 16a3 3 0 1 1-6 0 3 3 0 1 1 6 0zm-3 22a3 3 0 1 0 0-6 3 3 0 1 0 0 6zm21-60a3 3 0 1 1-6 0 3 3 0 1 1 6 0zm-3 22a3 3 0 1 0 0-6 3 3 0 1 0 0 6zm3 16a3 3 0 1 1-6 0 3 3 0 1 1 6 0zm-3 22a3 3 0 1 0 0-6 3 3 0 1 0 0 6zm21-60a3 3 0 1 1-6 0 3 3 0 1 1 6 0zm-3 22a3 3 0 1 0 0-6 3 3 0 1 0 0 6zm3 16a3 3 0 1 1-6 0 3 3 0 1 1 6 0zm-3 22a3 3 0 1 0 0-6 3 3 0 1 0 0 6z" fill="#ffe3e3"/><path d="M1254.91 555.755c1.45-1.259 3.73-.474 4.09 1.415l7.32 37.91c.36 1.89-1.45 3.466-3.27 2.837l-36.53-12.625a2.5 2.5 0 0 1-.82-4.251l29.21-25.286z" fill="#fff4e6"/><path d="M1255.77 594.51l-7.32-37.91c-.8-4.154-5.8-5.882-9-3.111l-29.21 25.285c-3.2 2.772-2.2 7.969 1.8 9.353l36.53 12.625c4 1.383 8-2.085 7.2-6.242z" stroke="#ff922b" stroke-width="6" stroke-linejoin="round"/><path d="M1069.17 420.5c0 8.627-7.01 15.625-15.65 15.625s-15.65-6.998-15.65-15.625 7.01-15.625 15.65-15.625 15.65 6.998 15.65 15.625z" stroke="#cc5de8" stroke-width="3.75"/><path d="M414.017 64.08c.996-3.718 5.643-4.963 8.365-2.241L449.8 89.258c2.722 2.722 1.477 7.369-2.241 8.365l-37.454 10.036c-3.718.996-7.12-2.406-6.124-6.124l10.036-37.455z" stroke="#94d82d" stroke-width="5" stroke-linejoin="round"/><rect opacity=".1" width="33.862" height="33.877" rx="3" transform="matrix(.865838 .500324 -.499676 .866212 516.281 475.653)" fill="#f06595"/><g stroke-width="4"><rect x="-.732" y="-2.733" width="34.937" height="34.95" rx="5" transform="matrix(.865838 .500324 -.499676 .866212 509.001 480.458)" stroke="#f06595"/><circle opacity=".4" cx="100.5" cy="232.5" r="10.5" stroke="#5c7cfa"/></g></svg>